<svg width="32" height="28" viewBox="0 0 32 28" fill="none" xmlns="http://www.w3.org/2000/svg">
<path d="M1.77778 28H30.2222C31.2 28 32 26.95 32 25.6667C32 24.3833 31.2 23.3333 30.2222 23.3333H1.77778C0.8 23.3333 0 24.3833 0 25.6667C0 26.95 0.8 28 1.77778 28ZM1.77778 16.3333H30.2222C31.2 16.3333 32 15.2833 32 14C32 12.7167 31.2 11.6667 30.2222 11.6667H1.77778C0.8 11.6667 0 12.7167 0 14C0 15.2833 0.8 16.3333 1.77778 16.3333ZM0 2.33333C0 3.61667 0.8 4.66667 1.77778 4.66667H30.2222C31.2 4.66667 32 3.61667 32 2.33333C32 1.05 31.2 0 30.2222 0H1.77778C0.8 0 0 1.05 0 2.33333Z" fill="#C2BABA"/>
</svg>
